PathFileType	4	(X/Y/Z)	Patient4_TMGait_0pt7_02_left_04.trc.trc
DataRate	CameraRate	NumFrames	NumMarkers	Units	OrigDataRate	OrigDataStartFrame	OrigNumFrames
85.365853658537	85.365853658537	4	33	mm	85.365853658537	18	       141
Frame#	Time	Sacral			L.Shoulder			Chest			R.Shoulder			Neck			R.ASIS			L.ASIS			R.Thigh.Superior			R.Thigh.Lateral			R.Thigh.Inferior			R.Patella			L.Thigh.Superior			L.Thigh.Lateral			L.Thigh.Inferior			L.Patella			L.Shank.Superior			L.Shank.Lateral			L.Shank.Inferior			R.Shank.Superior			R.Shank.Lateral			R.Shank.Inferior			R.Heel			R.Midfoot.Superior			R.Midfoot.Lateral			R.Toe			L.Heel			L.Midfoot.Lateral			L.Midfoot.Superior			L.Toe			L.Elbow			L.Wrist			R.Elbow			R.Wrist			
		X1	Y1	Z1	X2	Y2	Z2	X3	Y3	Z3	X4	Y4	Z4	X5	Y5	Z5	X6	Y6	Z6	X7	Y7	Z7	X8	Y8	Z8	X9	Y9	Z9	X10	Y10	Z10	X11	Y11	Z11	X12	Y12	Z12	X13	Y13	Z13	X14	Y14	Z14	X15	Y15	Z15	X16	Y16	Z16	X17	Y17	Z17	X18	Y18	Z18	X19	Y19	Z19	X20	Y20	Z20	X21	Y21	Z21	X22	Y22	Z22	X23	Y23	Z23	X24	Y24	Z24	X25	Y25	Z25	X26	Y26	Z26	X27	Y27	Z27	X28	Y28	Z28	X29	Y29	Z29	X30	Y30	Z30	X31	Y31	Z31	X32	Y32	Z32	X33	Y33	Z33	

18	4.359142857143	791.947837142569	1014.867998554180	518.481473281966	982.576364337479	1431.755625353428	333.080292303688	1099.270914872209	1344.549032232154	476.598697191492	1048.868004525785	1424.332813780785	660.373442110489	1010.027244280932	1486.233167622904	489.095391074182	1018.066559370053	937.380785916310	623.236129527564	991.901707395450	952.796091554284	348.124540736908	1011.797429251381	726.311152364317	599.242779860830	902.646776490862	635.172455181116	656.235470819634	965.666861563946	568.596760528454	579.931530058805	947.668776366687	485.870874133404	584.673324930557	1067.708764426870	785.148773225302	376.143392238009	1032.776305911541	656.212701092896	288.494438264734	1140.732917467489	602.848513549431	347.648642576292	1173.891965702190	539.151972644260	339.854475009309	1159.543362663773	465.434432660327	330.651857936164	1097.149559795981	334.403710360014	276.827076581463	1187.404193400224	236.904907288116	329.617340566155	912.018586513368	402.846174571403	587.621417789446	828.948891468159	303.750190027244	642.953104969384	869.444440308668	207.251943423667	579.599304415216	730.064115493736	43.746251172766	537.454426309979	901.676170065005	97.479184957879	578.485785753888	811.541829691231	36.822914266071	613.443110403152	1019.874365164023	43.528756391628	608.079703371322	1111.162519902385	52.948809116761	365.043844583804	1186.347956363083	60.450076848703	286.197963398191	1252.593629455503	142.254913459999	307.537318693173	1388.068322458702	119.820598537312	283.883548624677	792.472270919911	1140.499411081214	233.708325243814	706.604505731850	898.415837525472	220.900968760365	1179.599175736422	1104.767061561088	746.345745171213	1403.083262297155	1145.446916986985	631.652337206061	
19	4.370857142857	793.676773772310	1013.520620268537	516.676953421636	983.358100891408	1430.557948355885	331.437663364072	1099.965630377437	1343.589302354262	475.102372867076	1049.205932715016	1423.434964628899	658.637680420196	1010.483864859211	1485.045229927001	487.505247816820	1019.301707945249	936.246376528255	622.010182669146	993.752343557680	950.880272441138	346.808291151890	1011.153861729378	724.786505119762	598.294076548649	900.798042592518	634.719631384849	655.452041195142	962.895597097995	567.390111998500	579.201824010808	944.014051358952	484.637191722651	584.005739211441	1067.907905667085	781.175555532249	375.308661220701	1030.824980882782	651.953195282954	288.749861044666	1138.318568647226	597.861139321806	348.084480663552	1170.925543789658	534.851121802763	340.740557643978	1157.244093153175	461.837770008460	331.632201380964	1096.183288844621	329.456942901239	279.924420360055	1188.870836834007	233.840488849061	332.139877054669	907.351888087289	402.068197180360	587.101211917330	823.411679541062	303.907964268741	642.728873556278	862.674091069340	206.925418854297	579.384568556385	721.862582481132	44.070678283303	537.590858658934	893.532586722066	97.268434727311	578.409917442173	803.339690981808	36.884025552274	613.587676286241	1011.718533369564	43.016275199313	608.092604005373	1115.828656975770	49.650279552031	370.127550129001	1189.900070312073	57.077467857362	290.278740825364	1255.897369493238	139.296974377338	310.111205926986	1391.141387042828	117.477497924650	284.961688575177	789.552399135922	1142.643811531513	232.070863270376	701.713735130254	900.936510396318	220.244016300586	1185.845732450896	1107.510851082419	743.204343018926	1404.621904410614	1163.453382515872	627.366645161569	
20	4.382571428571	795.613872322584	1012.028130494734	514.633134589040	984.179271285991	1429.282236566242	329.597271801693	1100.701685284227	1342.666187363675	473.463900689999	1049.455813065317	1422.522796753277	656.739478575689	1010.914993868165	1483.821283973985	485.717773936698	1020.698008779660	935.016391364708	620.618064841016	995.849070157877	948.897972747700	345.382794699295	1010.902865568614	723.217731746261	597.220300617524	899.428998858464	634.164098185531	654.529311338033	960.717479594880	566.097892094218	578.384378390399	940.895959218850	483.275569237908	583.219378770170	1068.465144462195	777.128519093638	374.333820874570	1029.036502016583	647.597481399579	289.164063247902	1136.111866504986	592.846558600542	348.620229026608	1168.045034690472	530.244689726669	341.776480631894	1154.641594992586	457.782682445844	332.819330428650	1094.074296829758	324.462312214525	283.392868172111	1188.541490143361	230.230165825331	335.051542069211	903.163387928682	401.151761535914	586.508845084315	818.217429234947	304.068305168565	642.438882041033	856.102913330544	206.543771704945	579.149742079108	713.678355374044	44.487540043615	537.759030163650	885.439843881888	97.092277453388	578.389843843164	795.156343673875	36.968571016377	613.744554437396	1003.570079736202	42.473027327552	608.119761385154	1117.384394521449	46.636619366291	375.560479400889	1190.302718749367	53.594359178895	294.642549148352	1256.770932684020	135.439573598721	313.194033468508	1391.510572143608	113.055084580364	286.323069075029	787.308259465914	1144.243286141821	230.440054892170	697.912306322320	902.745079905193	219.543960146603	1191.545253061645	1110.121866106618	740.120343188264	1405.038958483779	1180.080997945476	623.610593501019	
21	4.394285714286	797.709980061932	1010.449105465209	512.364198596160	985.072085651365	1427.951382328562	327.547545647530	1101.506433547084	1341.790649875298	471.672655446328	1049.659763370826	1421.616921194461	654.671550525135	1011.359201187047	1482.590365273606	483.715218655572	1022.229505520940	933.712331729966	619.071726887717	998.162062496117	946.903507703983	343.849484913484	1011.024146129423	721.621210069639	596.056230412864	898.507942460157	633.513998306698	653.464648116596	959.119965115772	564.726348271850	577.491628634043	938.301070521563	481.795383769003	582.306977001933	1069.377736432611	773.117145980989	373.218514849034	1027.429647384771	643.272426222411	289.713272825038	1134.155203542169	587.960267637811	349.234617121492	1165.296424242493	525.506898893927	342.996983812755	1151.869345802241	453.434737329613	334.203363258654	1091.116105640803	319.550910851526	287.010976164623	1186.688848816127	226.195758137595	338.228111894077	899.445364147426	400.109393363983	585.835598483215	813.359067518735	304.247808987446	642.075229541542	849.729105373190	206.129436372336	578.894927645333	705.516683979589	45.035001709384	537.959877146119	877.410643644901	96.969679862199	578.434881310826	786.995386010720	37.098728849146	613.912653762252	995.431589172731	41.904325090541	608.167262598726	1116.094509793873	43.954918875475	380.958383651848	1187.967769694510	50.122438211947	299.038226681042	1255.569839757522	130.811857003358	316.721986431343	1389.599710158776	106.728492150818	288.135038691463	785.809195257607	1145.241497006484	228.792522398715	695.202468743749	903.836480294474	218.762537823201	1196.651534174708	1112.535839416723	737.162774812142	1404.467883412686	1195.248336413267	620.359430754783	
